P3
# sample 8x8 image with color stripes
8 8
255
255 0 0   0 255 0   0 0 255   255 255 0   255 0 255   0 255 255   255 255 255   0 0 0
255 0 0   0 255 0   0 0 255   255 255 0   255 0 255   0 255 255   255 255 255   0 0 0
255 0 0   0 255 0   0 0 255   255 255 0   255 0 255   0 255 255   255 255 255   0 0 0
255 0 0   0 255 0   0 0 255   255 255 0   255 0 255   0 255 255   255 255 255   0 0 0
255 0 0   0 255 0   0 0 255   255 255 0   255 0 255   0 255 255   255 255 255   0 0 0
255 0 0   0 255 0   0 0 255   255 255 0   255 0 255   0 255 255   255 255 255   0 0 0
255 0 0   0 255 0   0 0 255   255 255 0   255 0 255   0 255 255   255 255 255   0 0 0
255 0 0   0 255 0   0 0 255   255 255 0   255 0 255   0 255 255   255 255 255   0 0 0